<?xml version="1.0" encoding="utf-8"?>
<!-- Generator: Adobe Illustrator 19.2.1, SVG Export Plug-In . SVG Version: 6.00 Build 0)  -->
<svg version="1.1" id="Capa_1" xmlns="http://www.w3.org/2000/svg" xmlns:xlink="http://www.w3.org/1999/xlink" x="0px" y="0px"
	 viewBox="0 0 6.7 8" style="enable-background:new 0 0 6.7 8;" xml:space="preserve">
<style type="text/css">
	.st0{fill-rule:evenodd;clip-rule:evenodd;fill:#F9B03D;}
</style>
<g>
	<path class="st0" d="M4.3,0.5c0.1-0.2,0.4-0.4,0.6-0.4c0,0,0,0,0,0c0,0.1-0.1,0.3-0.1,0.4C4.9,0.5,5,0.4,5.1,0.3c0,0,0,0,0,0
		C5,1.3,5.4,1.6,5.7,2.2C5.8,2.6,6,3,6.1,3.4c0.1,0.1,0.1,0.3,0.2,0.5c0.3,0.7-0.2,1-0.8,0.8C5.4,4.6,5.3,4.5,5.3,4.3
		C4.7,4.2,4.4,3.7,4,3.3C2.9,3.7,3.7,4.9,3.9,5.9c0.1,1.1-0.2,1.6-0.8,2c-2.7-2.9-2.9-3-2.9-3.1c0-0.5,0.1-1.1,0.2-1.6
		C1,1.7,2.2,1,4.1,0.8C4.1,0.8,4.3,0.6,4.3,0.5"/>
</g>
</svg>
