<?xml version="1.0" encoding="utf-8"?>
<!-- Generator: Adobe Illustrator 26.3.1, SVG Export Plug-In . SVG Version: 6.00 Build 0)  -->
<svg version="1.1" id="Capa_1" xmlns="http://www.w3.org/2000/svg" xmlns:xlink="http://www.w3.org/1999/xlink" x="0px" y="0px"
	 viewBox="0 0 77.8 77.8" style="enable-background:new 0 0 77.8 77.8;" xml:space="preserve">
<style type="text/css">
	.st0{fill:#FFFFFF;}
</style>
<g>
	<polygon class="st0" points="72.3,72.1 63.1,72.1 63.1,67.2 67.4,67.2 67.4,10 10.4,10 10.4,67.2 14.4,67.2 14.4,72.1 5.5,72.1 
		5.5,5.1 72.3,5.1 	"/>
	<g>
		<path class="st0" d="M38.8,51L20.7,61.5l18.4,10.7l18.1-10.6L38.8,51z M44.4,62.2c-1.2,0.7-2.8,0.9-4,0.9c-1.2,0-3.9-0.1-3.9-0.1
			l3.5,2l-2.4,1.4l-7.5-4.4l1.7-1c0,0,7.6,0.2,8.3,0.2c0.7,0,1.4-0.1,1.7-0.3c0.5-0.3,0.7-0.8,0-1.2c-1.1-0.7-2.5,0.1-2.5,0.1
			l-2.4-1.4c2-1.2,5.3-1.1,7.2,0C46.5,59.7,45.7,61.5,44.4,62.2z"/>
		<path class="st0" d="M37.8,27.3L19.3,38l0.1,21.5l18.4-10.6L37.8,27.3z M27.7,49.7l0-8.8l-1.5,0.9l0-2.8l4.2-2.4l0,1.9l0,0.9
			l0,8.8L27.7,49.7z"/>
		<path class="st0" d="M58.5,38L40.1,27.3l0,21.6l18.4,10.6V38z M51.5,50.5l-1.9-4.3l-1.9,2.1l-3.1-1.8l3.5-3.9l-3.4-7.7l3.4,1.9
			l1.7,3.9l1.7-1.9l3.4,1.9l-3.5,3.7l3.4,7.9L51.5,50.5z"/>
	</g>
</g>
</svg>
