<?xml version="1.0" encoding="utf-8"?>
<!-- Generator: Adobe Illustrator 27.5.0, SVG Export Plug-In . SVG Version: 6.00 Build 0)  -->
<svg version="1.1" id="Capa_1" xmlns="http://www.w3.org/2000/svg" xmlns:xlink="http://www.w3.org/1999/xlink" x="0px" y="0px"
	 viewBox="0 0 219.9 219.9" style="enable-background:new 0 0 219.9 219.9;" xml:space="preserve">
<style type="text/css">
	.st0{fill:#000000;}
</style>
<g>
	<g>
		<polygon class="st0" points="218.5,217.7 189,217.7 189,201.9 202.8,201.9 202.8,17.8 18.7,17.8 18.7,201.9 31.6,201.9
			31.6,217.7 2.9,217.7 2.9,2.1 218.5,2.1 		"/>
	</g>
</g>
<g>
	<path class="st0" d="M108.5,120l-11.4,7.8c-0.3,0.2-0.7,0-0.8-0.4l-0.4-13.8c-0.1-4.4,3.4-8.1,7.8-8.2
		C111.7,105.3,114.9,115.6,108.5,120L108.5,120z"/>
	<path class="st0" d="M114.5,151.6l-13.8,0.8c-0.4,0-0.6-0.4-0.4-0.7l6.8-12c2.2-3.8,7-5.2,10.9-3
		C124.8,140.7,122.2,151.2,114.5,151.6L114.5,151.6z"/>
	<path class="st0" d="M101,173.8l-7.6-11.5c-0.2-0.3,0-0.7,0.4-0.7l13.8-0.1c4.4,0,8,3.5,8,7.9C115.7,177.2,105.3,180.3,101,173.8
		L101,173.8z"/>
	<path class="st0" d="M75,173.4l6.1-12.3c0.2-0.3,0.7-0.4,0.8,0l7,11.9c2.2,3.8,1,8.7-2.8,10.9C79.3,187.9,71.5,180.4,75,173.4
		L75,173.4z"/>
	<path class="st0" d="M62.6,150.4l13.8-0.8c0.4,0,0.6,0.4,0.4,0.7l-6.8,12c-2.2,3.8-7,5.2-10.9,3C52.3,161.3,54.9,150.8,62.6,150.4
		L62.6,150.4z"/>
	<path class="st0" d="M76.5,128.2l7.6,11.5c0.2,0.3,0,0.7-0.4,0.7L70,140.6c-4.4,0-8-3.5-8-7.9C61.9,124.7,72.3,121.7,76.5,128.2
		L76.5,128.2z"/>
	<path class="st0" d="M43.8,115.6l7.2,11.8c0.2,0.3,0,0.7-0.4,0.7l-13.8-0.4c-4.4-0.1-7.9-3.8-7.7-8.2
		C29.3,111.6,39.8,108.9,43.8,115.6L43.8,115.6z"/>
	<path class="st0" d="M80.3,207.9l6.6-12.1c0.2-0.3,0.7-0.3,0.8,0l6.6,12.1c2.1,3.9,0.7,8.7-3.2,10.8
		C84.1,222.5,76.5,214.8,80.3,207.9L80.3,207.9z"/>
	<path class="st0" d="M136.7,188.2l-7.2-11.8c-0.2-0.3,0-0.7,0.4-0.7l13.8,0.4c4.4,0.1,7.9,3.8,7.7,8.2
		C151.3,192.1,140.8,194.8,136.7,188.2L136.7,188.2z"/>
	<path class="st0" d="M34.1,172.4l13.8-0.4c0.4,0,0.6,0.4,0.4,0.7l-7.2,11.8c-2.3,3.7-7.2,4.9-10.9,2.6
		C23.4,183,26.3,172.6,34.1,172.4L34.1,172.4z"/>
	<path class="st0" d="M135.6,73.6l-12.2,6.4c-0.3,0.2-0.7-0.1-0.7-0.5l1.3-13.7c0.4-4.4,4.3-7.6,8.7-7.2
		C140.5,59.3,142.5,70,135.6,73.6L135.6,73.6z"/>
	<path class="st0" d="M184.4,130l-12.9-4.8c-0.4-0.1-0.4-0.6-0.1-0.8l11.1-8.2c3.5-2.6,8.5-1.9,11.1,1.7
		C198.3,124.2,191.7,132.8,184.4,130L184.4,130z"/>
	<path class="st0" d="M83.8,92.1l-2.1,16.4c-0.1,0.5-0.6,0.7-0.9,0.4L68.2,98.1c-4-3.4-4.5-9.4-1.1-13.4
		C73.3,77.4,85,82.8,83.8,92.1L83.8,92.1z"/>
	<path class="st0" d="M148.1,119.5l-16.5-0.7c-0.5,0-0.7-0.5-0.4-0.9l9.6-13.4c3.1-4.3,9-5.3,13.3-2.2
		C161.8,107.7,157.5,119.9,148.1,119.5L148.1,119.5z"/>
	<path class="st0" d="M151.7,161.6l-14.5-7.9c-0.4-0.2-0.4-0.8,0-1l14.5-7.9c4.6-2.5,10.4-0.8,12.9,3.8
		C169.1,157,159.9,166.1,151.7,161.6L151.7,161.6z"/>
	<path class="st0" d="M103.8,197l-4.1-16c-0.1-0.4,0.3-0.8,0.7-0.7l15.6,5.2c5,1.7,7.7,7.1,6,12.1C119,206.6,106.1,206,103.8,197
		L103.8,197z"/>
	<path class="st0" d="M56.6,187.1l11.8-11.6c0.3-0.3,0.9-0.2,1,0.3l3.3,16.2c1,5.2-2.3,10.2-7.4,11.2
		C55.9,205.1,50,193.6,56.6,187.1L56.6,187.1z"/>
	<path class="st0" d="M41.6,141.4l15.9,4.4c0.4,0.1,0.6,0.7,0.2,1l-12.4,10.9c-3.9,3.5-10,3.1-13.4-0.8
		C25.7,149.7,32.7,138.9,41.6,141.4L41.6,141.4z"/>
</g>
</svg>
